<?xml version="1.0" encoding="UTF-8"?>
<svg id="_圖層_1" data-name="圖層 1" xmlns="http://www.w3.org/2000/svg" viewBox="0 0 169.13 94.7">
  <defs>
    <style>
      .cls-1 {
        fill: #9c943e;
      }

      .cls-1, .cls-2, .cls-3, .cls-4, .cls-5, .cls-6, .cls-7, .cls-8, .cls-9, .cls-10, .cls-11, .cls-12, .cls-13 {
        stroke-width: 0px;
      }

      .cls-2 {
        fill: #d8e58f;
      }

      .cls-3 {
        fill: #a5d3a2;
      }

      .cls-4 {
        fill: #b5d899;
      }

      .cls-5 {
        fill: #98cfa8;
      }

      .cls-6 {
        fill: #eaec88;
      }

      .cls-7 {
        fill: #d5e48f;
      }

      .cls-8 {
        fill: #c8df94;
      }

      .cls-9 {
        fill: #f1ef84;
      }

      .cls-10 {
        fill: #e0e88b;
      }

      .cls-11 {
        fill: #b5d99a;
      }

      .cls-12 {
        fill: #b9455a;
      }

      .cls-13 {
        fill: #9dd1a5;
      }
    </style>
  </defs>
  <path class="cls-8" d="m149.11,25.1c0-.4-.3-.8-.9-.9-.6-.1-1.1-.1-1.7-.1-2-.1-3.9-.1-5.9-.1-1.9.2-3.8.6-5.6.7-1.8,0-3.4.8-4.4,2.3.6.3.9.9.9,1.5,0,1.4-.1,2.8-.2,4.2,0,.1,0,.2.1.2,2.1.8,3.2,2.4,4.2,4.2.3.6.8,1.1,1.1,1.8.3.6.8,1.1.7,1.8-.1,1.1.3,2,.6,3,.4,1.4,1,3,.9,4.5.2,0,.4-.1.6-.2,0-.1.1-.2.2-.2,0-.1.1-.2.1-.3v-2.5c0-.7-.2-1.4.1-2.2.3-.6.9-.7,1.4-.7h5.9c.6,0,1,0,1.4-.1.1,0,.4-.2.4-.4.1-.4.1-1,.1-1.4.1-2.3.1-4.8.1-7.1v-6.2c0-.7,0-1.2-.1-1.8Z"/>
  <path class="cls-6" d="m130.71,55.4c-.4.7-1,1.3-2.1.8-.1-.1-.4,0-.7.1s-.7,0-.8-.3c-.7-1.7-1.8-2.9-3.1-4.1-1.1-1-1.7-2.4-2.9-3.4l-1-1c-.3-.2-.7-.4-1.1-.4-1.2,0-2.3-.1-3.5.2-1.2.4-2.4.4-3.6-.2-.4.6-.3,1.3-.6,2-.1.3-.3.6-.7.6-.7,0-1.4-.1-2.1-.3-1-.4-1.8,0-2.4.8-.9,1-1.9,2-2.8,3-.6.8-1.4,1.2-1.9,2.1,0,.2-.1.4-.3.4,0,0,0,.1-.1.1l-.1.1c.2.9.7,1.4,1.5,1.5.6.2.8.4.8,1h2.3c0-.3,0-.7.2-.9.8-1.2,2.1-1.9,3.4-2.3,1.3-.3,2.5,0,3.6,1,1.2,1.2,2.4,2.4,3.9,3.4,1.1.8,1.5,2,1.5,3.3s-.1,2.7-1,3.8c-.3.3-.4.9-.4,1.3.7,0,1.3,0,2-.2.8-.3,1.5-.4,2.2.1.6-.4,1.4-.8,2-1.4.1-.2.3-.4.4-.6,0-.1.1-.2.1-.3,0,0,0-.1.1-.1-.1-.1-.2-.3-.3-.5-.7-1-.6-1.5.3-2.1.7-.3,1.3-.6,2-.8,3.4-1.3,5.3-3.9,5.4-7.3.2.2.1.4-.2.6Z"/>
  <path class="cls-6" d="m69.61,34.4c-.4-.5-1.4-.4-1.5-.3h-.2c-.1.1-.3,0-.4.1-1.5,1-2.8.8-4.1-.3-.9-.6-1.7-1.2-2.3-2-1.4-1.9-3.4-3.1-5.2-4.4-.2-.2-.6-.4-.8-.6-2.8-1.7-2-1.8-.6-3.6-.1-.9.3-1.5.7-2.3.3-.7.1-1.1-.7-1.3-.1,0-.3-.1-.4-.1h-.3c-.1.2-.3.4-.5.6-.2.2-.4.5-.5.7s-.3.4-.5.6c-.2.2-.5.4-.7.5-.4.3-.8.7-1.2,1-2.1,1.5-3.8,3.5-5.5,5.4-1.1,1.2-1,1.4.1,2.8.1.1.1.3.1.4-.2.4-.7.3-1,.4.2.1.3.3.7.2,1.1.2,1.4,1,1.3,2,.9-.6,1.7-.6,2.4,0,.3.3.8.7,1.2,1,1.5,1.3,2.8,3.1,4.5,4.1.3.1.4.4.7.7.8,1.3,2,2,3.4,2.4.3-.1.6-.2.9-.2.2,0,.4,0,.5.1.3.1.6.1.9.2.4.1.8.1,1.1.1,0,0,1,0,2.2-.5.1,0,.1-.1.2-.1.3-.2.5-.4.5-.5,2.3-2,4-4,4-4,.2-.2.4-.4.6-.8.2-.4.9-1.7.4-2.3Z"/>
  <path class="cls-4" d="m20.61,60.8c.1,1.3.1,2.4.1,3.1,0,1.6.3,3.2.2,4.9,0,.1-.1.6.1.7h1.3c1.5-.1,4.4-.1,4.5-.1.6,0,1.4.1,2.5.2-.4,1.3-.4,2.4-.4,3.2v5.2c0,.6-.3.9-.9.9h-6.1c-.8.1-1.1.4-1.2,1.2-.1.4,0,1-.1,1.4,0,.4-.4.6-.9.7v-2.5c0-.7-.2-1-1-1h-7.5c-.3,0-.6-.2-.7-.6s-.1-1-.1-1.4v-14.8c0-.7.3-1,1-1,1,0,1.4-.1,1.7,0,.7,0,2.5.1,7.5-.1Z"/>
  <path class="cls-4" d="m158.31,30.3v-14.4c0-.4,0-.8-.4-1-2.9,0-5.6,0-8.5.1h-5.6c-.7,0-1.2.1-1.9.3-.7.3-1.2.8-1.1,1.7,0,.7,0,1.4-.3,2.1-.2.6-.2,1.2,0,1.9.1.4.2.9.3,1.5.1.7.1,1.4,0,1.9,2.8-.1,4.9-.1,5.7,0,.4.1,1.1.2,1.2.2.8.2.9.3,1,.3.5.5.3,1.6.2,1.9-.3,1.1-.4,3-.1,6.3.3,0,.7-.1,1.1-.2.2,0,.3-.1.5-.1h5.2c.9-.4,1.8-.1,2.7-.2.1-.6,0-1.5,0-2.3Z"/>
  <path class="cls-5" d="m103.91,27.5c.9,0,1.9-.1,2.8-.1.2,0,.4-.1.6-.1,0-2.1.1-3.9.1-5.3.1-3.7.1-5.6.1-6.2-.1-1.1-.2-1.9-.1-3.3.1-1.3.3-2.4.5-3.1-2.8.1-4.8.2-6.2.3-.6,0-.9.1-1.4.1h-4.5c-.4,0-1,0-1.4.1-.3,0-.6.2-.7.7,0,.6-.1,1.1-.1,1.7v13.9c0,1.1.2,1.3,1.2,1.3,1.6,0,3.2.1,4.8,0h2.3c.8,0,1.5,0,2,0Z"/>
  <path class="cls-13" d="m47.71,66.2h13.6v17.9h-13.6c.3-3.2.7-6.3.6-9.5v-5c-.1-1.1-.2-2.3-.6-3.4Z"/>
  <path class="cls-5" d="m61.01,84.1v-17.9h11.6c1,0,1.2.2,1.2,1.2v15.4c0,1.1-.2,1.3-1.4,1.3-3.8.1-7.7.1-11.4,0Z"/>
  <path class="cls-3" d="m120.11,9.4c2.5-.1,5.1-.2,7.6.2,1.2.2,2.4-.1,3.6.2v11.3c0,2-.3,4-1.3,5.8-.1.1,0,.3-.1.4-4,.1-7.9.1-11.8-.1.3-1.1.4-2.3.4-3.4.1-3-.3-6,.4-9-.2-1.8.6-3.4,1-5,.2-.1.2-.3.2-.4Z"/>
  <path class="cls-3" d="m48.81,66.2c.4,1.1.6,2.2.4,3.4v5c.1,3.2-.1,6.4-.6,9.5-3.8.1-7.6.1-11.4,0v-18.3c3.8.1,7.7.3,11.6.4Z"/>
  <path class="cls-13" d="m120.01,9.8c-.4,1.7-1.2,3.2-1,5-.8,3-.3,6-.4,9,0,1.2-.1,2.3-.4,3.4-3.6,0-7.3,0-10.9.1v-14.7c0-1.1.1-2.2.6-3.2h6.1c.1.4.2.8.7.8,1.4,0,2.9.3,4.2-.2.2-.2.7-.2,1.1-.2Z"/>
  <path class="cls-2" d="m37.41,60.9c0-.4.1-1-.3-1.3-.9-.9-1.3-2.1-2.5-2.8-1-.6-1.8-1.5-2.4-2.5-.2-.3-.4-.7-.8-.9-.9-.7-1.1-1.5-1.2-2.7,0-1.1-.6-2.3-.4-3.5,0-.9.1-1.7.8-2.4.4-.4.7-1.1.7-1.8,2.1,0,4.1-.1,6.2-.1.1.1.3.4.3,1,0,.4-.1.8-.1,1,.8,1.2,1.5,2,2.2,2.5,1.4,1.2,2.8,2,5,3.2.7.3,1.2.7,1.5.8-.1,1-.1,1.8-.1,2.2.1,3.5.3,6.3.3,6.3,0,.8-.2.9-1,.9-2.9.2-5.6.1-8.2.1Z"/>
  <path class="cls-11" d="m156.21,15.2c-2.1,0-4.2-.1-6.4-.1-.4-.2-.4-.6-.6-1,0-.8,0-1.5-.1-2.3-.1-1.2-.4-1.5-1.7-1.5h-6.3c-1.5,0-3.1.1-4.6-.4-1,0-2,0-3.1-.1-.4,0-.7-.1-1.1-.1h-.6c-.2,0-.3.1-.4.1v11.7c0,.8-.2,1.3-.3,1.8-.4,1.6-.3,1.5-.6,2.3-.2.6-.4,1-.5,1.3v.4c.3,0,.7-.1,1-.1,1-.7,2.4-1.5,4.3-2.1,2.3-.7,4.3-.8,5.6-.7.2-1.6.1-2.4,0-2.9,0-.1-.1-.3-.1-.6-.1-.6-.1-1.1-.2-1.4.3-.7.3-1.3.3-2.1s.4-1.2,1.1-1.7c.6-.3,1.2-.3,1.9-.3h5.6c2.9,0,5.6,0,8.5-.1-.5-.3-1.2-.1-1.7-.1Z"/>
  <path class="cls-7" d="m53.11,46c-2,.6-3.5-.3-4.5-2-.7-1.1-1.5-2-2.5-2.8-1.1-1-1.2-2.3-1.7-3.5-.1-.1-.1-.3,0-.4.8-1.3,1-2.9,2.3-3.8.1-1.1-.1-1.9-1.3-2-.2,0-.3-.2-.6-.3-3.4.7-6.6,3.9-7.1,7.3-.1,1.4-.3,3-.4,4.4v.4c-.1.2-.1.3-.1.6,0,.1-.1.1-.1.2q-.1.1-.1.2v.4c0,.1.1.2.2.3h.1c.8.7,1.2,1.9,2.1,2.5,1.7,1.2,3.1,2.5,5.2,3.1.7.1,1.2.3,1.5,1,.5-.1,1.1-.1,1.4-.1h.3c.5,0,1.1-.1,2.2-.3.5-.1,1.1-.3,1.9-.5v-1c0-.6.1-1.1.7-1.4.8-.4,1-1.2,1.2-2-.1.1-.5-.4-.7-.3Z"/>
  <path class="cls-9" d="m119.91,67.3c-.7.2-1.3.2-2,.2-1,.2-2,.6-2.9,1,.1,1-.2,1.9-1.1,2.7-1.2,1-2.1,2.1-3.4,2.9-1.2.8-2.3.8-3.5,0-.2-.2-.6-.3-.8-.6-1.8-1.7-3.6-3.1-5.5-4.4-.6-.4-.9-1.1-1.1-1.8-.8-2.2-.4-4.1,1.1-5.9,1.1-1.2,2.1-2.4,3.3-3.5,0-.6-.2-.9-.8-1-1-.2-1.5-.9-1.7-1.9q0,.1-.1.2c-.1.1-.1.2-.2.3-.1.1-.2.2-.3.3l-.1.1v.1c-1.7,1.7-3.3,3.2-4.9,4.9-1,1-1.9,2-2.8,3-.6.7-.6.9,0,1.5l3.3,3.3c3.5,3.5,7,7.1,10.5,10.6,1.7,1.8,2,1.9,3.8.1.1-.2.3-.3.4-.6,2.1-2.4,4.3-4.6,6.5-6.9,1.5-1.5,3-3.1,4.4-4.6-.7-.5-1.4-.2-2.1,0Z"/>
  <path class="cls-2" d="m131.81,32.8c0,.1.1.1.1.2,2.1.8,3.2,2.4,4.2,4.2.3.7.8,1.2,1.1,1.8.3.6.7,1.1.7,1.8-.1,1.1.3,2,.6,3,.3,1.5.9,3,.9,4.5h-4c-1.9,0-3.6-.8-5.3-1.7-1.1-.6-2-1.4-2.9-2.3-1.1-1.1-2.4-2-3.9-2.7v-1c0-2.4,0-4.9-.1-7.2.1-.3.4-.4.8-.4h4.1c1.2,0,2.5-.1,3.7-.2Z"/>
  <path class="cls-11" d="m37.41,68.8c-1.4.1-2.8.2-4.2.3-1.4.1-2.9.2-4.3.3-.1.3-.2,1-.3,1.7-.1.6-.1,1-.1,1.7,0,.6.1,4.1,0,5.2,0,.1,0,.3-.2.4-.2.2-.6.2-.8.2h-7.1c-.2,0-.4,0-.6.2-.2.1-.2.3-.2.6v1.9c.1,1.5-.4,2,0,2.4.3.3.9.2,1.1.2h16.7c0-2.5-.1-5-.1-7.6.1-2.4.1-4.9.1-7.5Z"/>
  <path class="cls-10" d="m139.61,48.8q0-.1-.1-.2t-.1-.2c0-.1-.1-.1-.2-.1-1.3,0-2.5-.1-3.9-.1-1.9,0-3.6-.8-5.3-1.7-1-.6-2-1.4-2.9-2.3-1.1-1.1-2.4-2-3.9-2.7-.7.7-1.4.4-2.4.4-2.2.2-4.3.8-6.2,2-.2.2-.4.3-.7.5-.1.1-.3.2-.4.3-.8.7-1.5,1.4-1.8,2.5.7.4,1.4.5,2,.5.2.1.4.2.6.3,1,.4,2,.7,3.1,1.1,1.5.8,2.9,1.4,4,2.8,1,1.3,2.3,2.4,3.6,3.3.2.3.4.5.7.6.2.1.3.2.5.2.2.3.4.6.7.8.3.2.5.4.8.6.1.1.2.2.3.2.3.1.7.2,1,.3.2.1.3.2.5.2.2.1.6.1.7-.2.1-.1.1-.2.2-.3.1-.3.3-.5.4-.8.1-.5.2-1.1.3-1.6v-1c0-.4.1-.7.1-1s.1-.6.2-.9v-.3c.4-1.4.5-1.5,2.1-1.5,1,0,1.4,0,2.3.1,2,.1,3,.2,3.3-.2.7-.2.7-1,.5-1.6Z"/>
  <path class="cls-9" d="m76.01,29.1c-1.9-3.7-4.3-5.6-6.8-7.9-5-4.7-7.7-8.7-9.3-8-.2.1-.5.3-.6.4-.9.9-1.4,1.3-2.2,2.2-1,1.1-1,.9-2.1,2.1-.7.8-1.3,1.5-1.6,2h.1s.2,0,.4.1c.7.2,1,.7.7,1.3-.3.7-.8,1.4-.7,2.3,1.1-.3,2.2-.8,3.2-1.2,1.8-.6,3.4-.2,5,.7.9.6,1.8,1.1,2.4,1.9,1,1,2.1,1.9,3.1,2.9.9.8,1.3,1.7.8,2.9-.3.8-.6,1.5-.9,2.2-.2.4-.3,1-.3,1.5h.2c.4,0,1,0,1.5.3.2.1.5.3.8.9,1.1-.9,2.1-1.8,3.2-2.7,1.2-1.1,2.3-2.2,3.4-3.2-.1-.2-.2-.4-.3-.7Z"/>
  <path class="cls-10" d="m60.51,42.1c0-.1-2.4,0-4.1-1.4-.4-.4-.8-.8-1.1-1.3-.2-.2-.4-.6-.7-.7-1.8-1-3-2.8-4.5-4.1-.3-.3-.8-.7-1.2-1-.8-.6-1.7-.6-2.4,0-1.3.9-1.7,2.4-2.3,3.8v.4c.3,1.2.4,2.5,1.7,3.5,1,.8,1.9,1.7,2.5,2.8.5.8,1.1,1.5,1.9,1.8.1.2.3.3.4.4l.4.2h.1l.1.1c.2.1.3.2.4.3.3.2.5.4.7.7.1.1.2.1.3.2-.2.2-.4.4-.6.7,0,.1-.1.3-.2.6-.1.2-.3.6-.3,1.1,0,.2,0,.4.1.6.3,0,.7,0,1.2-.3.2-.1.3-.2.5-.3,0,0,.1,0,.1-.1.1-.1.2-.2.3-.3.1-.1.3-.1.4-.2.4-.3.7-.5.9-.6.9-.7,1.2-1,1.4-1.2.1-.1.2-.3.3-.5.1-.1.3-.6.4-1.2v-.9c0-.3,0-.8.1-1.2.1-.2.2-.5.4-.8s.5-.5.7-.6c.1,0,.2-.1.3-.1h1.1c0-.3.7-.3.7-.4Z"/>
  <path class="cls-6" d="m162.91,13.1h-.9c-1.7,0-2.1-.4-2.2-2-.2-3.1.4-3.2,2.9-3.4h1.2c.9.1,1.2.4,1.4,1.3.1.4.1,1,.1,1.4-.2,2.7,0,2.6-2.5,2.7Z"/>
  <path class="cls-6" d="m6.41,86.2h-.2c-2.4,0-3-.3-2.8-3.1.2-2,.6-2.3,2.4-2.3,3-.1,3.1-.1,3,2.9v.7c-.1,1.7-.2,1.8-2,1.9,0-.1-.3-.1-.4-.1Z"/>
  <path class="cls-8" d="m153.51,38.7c-.2-1.4-.3-1.9,1.5-1.8h1q2.5,0,2.4,2.7c0,.4,0,.8-.1,1.2-.1,1.1-.3,1.3-1.4,1.4-.7,0-1.2.1-1.9.1-.9,0-1.1-.1-1.2-1.1-.1-.8-.2-1.6-.3-2.5Z"/>
  <path class="cls-8" d="m10.51,53c1.4-.4,3-.3,4.4-.2.6,4.5.4,4.1-3.5,4-.4,0-.8-.2-.9-.7-.1-1-.4-2,0-3.1Z"/>
  <path class="cls-11" d="m149.31,14.1v-3.3c0-.9-.4-1.2-1.3-1.3h-8.8c-.3,0-.7.1-1.3.1h-3.7c-.4,0-.8,0-1.2.1-.3,0-.6,0-.8.1.3.1.8.2,1.1.2,1,0,2.1-.1,3.1.1,1.5.4,3.1.3,4.6.4h6.3c1.2,0,1.5.3,1.7,1.5.1.8,0,1.5.1,2.3,0,.4.1.8.6,1-.4-.4-.4-.9-.4-1.2Z"/>
  <path class="cls-2" d="m166.81,6.9c-1.2,0-1.7-.3-1.7-1.1-.1-.8.2-1.4,1-1.7.6-.1,1.1-.2,1.7-.2.9,0,1.2.4,1.3,1.3.1.9-.2,1.3-1.1,1.5-.4.1-1,.2-1.2.2Z"/>
  <path class="cls-3" d="m165.81,31.1c0,1.5-.9,2.2-2.4,1.8-.1,0-.1-.1-.2-.1-.6-.4-.4-1.1-.3-1.8,0-.6.2-1,.8-1.1.4-.1.9-.2,1.4-.2s.9.3.9.9c-.2.3-.2.4-.2.5Z"/>
  <path class="cls-2" d="m1.51,90.1c-.2,0-.6-.1-.8-.1-.3-.1-.6-.3-.6-.7,0-.2,0-.4-.1-.7-.1-1.2.7-2,2.1-1.8.7.1,1.1.6,1.2,1.2v.9c0,.7-.3,1-1,1.1-.3.1-.5.1-.8.1Z"/>
  <path class="cls-11" d="m13.11,94.7c-1.1,0-1.5-.3-1.7-1.3-.2-1.5.8-2.3,2.3-2,.1,0,.1.1.2.1.6.3.9,2.3.4,2.9-.4.3-.8.2-1.2.3Z"/>
  <path class="cls-3" d="m4.71,64.4h-.6c-.9-.1-1.3-.7-1.2-1.7,0-.4.2-.8.7-.8.7-.1,1.2-.1,1.9-.1.6,0,.8.3.9.9.1,1.4-.3,1.7-1.7,1.7Z"/>
  <path class="cls-11" d="m156.21,0c.3.1.7.1,1,.2.4.1.6.6.6.9,0,.4-.1.8-.6.9-.8.2-1.5.3-2.3.1-.4-.1-.8-.7-.7-1.1,0-.4.3-.8.7-.9.4,0,.9,0,1.3-.1Z"/>
  <path class="cls-13" d="m117.61,9.3h-1.3c-.6.1-1.2.1-1.9.1h-.6c.1.3.1.6.4.7.1.1.3.1.3.1,1.6,0,2.3.4,4.3,0,.3-.1.7-.1,1.3-.3,0,0,.1-.1.2-.3,0-.1-.1-.2-.1-.2-.4,0-.9-.1-1.4-.1h-1.2Z"/>
  <path class="cls-4" d="m155.61,32.9c.9-.4,1.8-.1,2.7-.2-.1.2-.3.3-.6.3h-.6s-.5-.1-1.5-.1Z"/>
  <path class="cls-12" d="m54.51,18.7c0,.7-.2,1.2-1,1.4,0-.6.7-.9,1-1.4Z"/>
  <path class="cls-1" d="m37.31,61.9c-.3-.3-.3-.7.2-.8-.1.2-.2.5-.2.8Z"/>
  <path class="cls-9" d="m111.31,66.8c-.1,0-.4-.1-.8-.3-.7-.3-1.2-.9-1.5-1.5-1-1.5-1.8-3.1-2.4-4.8-.3-.8-.2-1.5-.2-2.3h-2.3c-.1.1-.2.2-.3.3q-.1,0-.2.1c-.1.1-.2.2-.3.3l-.2.2c-.1.1-.2.2-.4.3-.2.2-.3.2-.4.3-.6.3-.7.8-1.5,1.7-.3.3-.3.2-.4.4l-.5,1c-.4.8-.6,1-.7,1.2-.7,1.3.1,3.2.4,3.8.2.4.5,1.2,1.3,1.9.3.3.7.5.9.6s.4.3.7.4c.1.1.2.3.4.5.3.3.4.4.7.6.4.3.6.2.9.4.2.2.3.3.4.3l.1.1c.1.1.2.1.2.2.3.2.6.7,1.1,1.2.3.3.6.4.9.6.3.2.5.3.8.3.3.1.8.2,1.4.2.3,0,.9-.1,1.9-.7.9-.6,1.3-1.1,3.2-3.2.4-.4.7-.8.9-1,.4-.7.7-1.3.8-1.8-2.5-.4-3.9-.9-4.9-1.3Z"/>
  <path class="cls-6" d="m115.01,68.5c-.8-.1-1.3-.2-1.7-.3-.7-.2-.8-.6-2.4-1.1-1-.3-1.8-1-2.3-1.9-1-1.7-2-2.8-2.4-4.8-.1-.6-.3-1.4-.3-2.4,0-.1-.1-.3-.1-.6s.3-.7.6-.8c1.7-1.4,3.3-1.8,3.3-1.8.7-.1,1.2-.2,1.9-.1s1.3.6,1.8,1.1c1.2,1.2,2.4,2.4,3.9,3.4,1.1.8,1.5,1.9,1.5,3.3,0,1.3-.1,2.7-1,3.8-.3.3-.4.8-.4,1.3-.3.1-.7.3-1.1.4-.6.4-.9.5-1.3.5Z"/>
  <path class="cls-6" d="m54.21,23.5c1.1-.4,2.2-.8,3.3-1.2,1.8-.6,3.4-.2,5,.7.9.6,1.7,1.1,2.4,1.9,1,1,2,2,3.1,2.9.9.8,1.3,1.8.8,2.9-.3.7-.6,1.4-.9,2.2-.2.6-.3,1-.3,1.5-.1,0-.3,0-.4.1-1.4,1-2.7.8-4.1-.3-.8-.7-1.7-1.2-2.3-2-1.4-1.9-3.4-3-5.2-4.4-.2-.2-.4-.4-.8-.6-2.8-1.7-2-1.8-.6-3.7Z"/>
  <path class="cls-8" d="m37.51,61.3v-.2c-.1-.7,0-1.2-.3-1.5-.9-.9-1.3-2.1-2.5-2.8-1-.6-1.8-1.5-2.4-2.5-.2-.3-.4-.7-.8-.9-.9-.7-1.1-1.5-1.2-2.7,0-1.1-.6-2.3-.4-3.5,0-.9.1-1.7.8-2.4.4-.4.7-1.1.7-1.8-.7,0-1.5,0-2.3-.1h-.1c-.3.1-.4.4-.3.7v1.6c0,1.3-.1,2.6.1,4,0,.7,0,1.5-.1,2.2q0,.1-.1.2v.2c-.9,0-1.8.1-2.5.1h-5.2c-1,0-1.1.2-1.1,1.1v15.7c0,.4.3.8.8.8h1.9c2.3,0,4.5-.1,6.9.1,2.9-.2,5.6-.4,8.5-.7-.2-.7-.3-1.5-.5-2.2-.1-.3-.2-.6-.2-.9-.1-.8-.1-1.5,0-2,.1-.8.2-1.6.3-2.5Z"/>
  <path class="cls-6" d="m107.01,55.7c0-.1-.1-.2-.2-.2-.1-.1-.3-.1-.4-.1s-.2.1-.3.2c0,.1-.1.1-.1.2l-.1.1c-.1.1-.2.2-.3.3-.2.2-.3.4-.4.7q0,.1-.1.2v.1c0,.2.2.4.4.6.2.1.4.1.6-.1v-.6s0-.1.1-.1c.2-.3.3-.4.3-.4.3-.3.4-.3.4-.6v-.2c.2.2.2,0,.1-.1Z"/>
</svg>