<?xml version="1.0" encoding="utf-8"?>
<!-- Generator: Adobe Illustrator 25.2.1, SVG Export Plug-In . SVG Version: 6.00 Build 0)  -->
<svg version="1.1" id="圖層_1" xmlns="http://www.w3.org/2000/svg" xmlns:xlink="http://www.w3.org/1999/xlink" x="0px" y="0px"
	 viewBox="0 0 841.9 595.3" style="enable-background:new 0 0 841.9 595.3;" xml:space="preserve">
<style type="text/css">
	.st0{fill:#E3DE49;}
	.st1{fill:#E7A751;}
	.st2{fill:#D15E45;}
	.st3{fill:#C5494C;}
	.st4{fill:#544426;}
	.st5{fill:#7B642C;}
	.st6{fill:#A49A3D;}
	.st7{fill:#E1924D;}
	.st8{fill:#BAC746;}
	.st9{fill:#DD7944;}
	.st10{fill:#CE445F;}
	.st11{fill:#D8A726;}
	.st12{fill:#BD4358;}
	.st13{fill:none;stroke:#E7A751;stroke-miterlimit:10;}
</style>
<g>
	<g>
		<path class="st0" d="M716.8,318.1c-0.7,0.1-0.7,0.5-0.8,0.8c-0.8,2.3-1.7,4.7-2.5,7c-0.7,2-1.6,4-2.3,6c-0.4,1-1,1.5-2.1,1.5
			c-2.6,0-5.1,0-7.7,0c-1.1,0-1.7-0.5-2.1-1.5c-0.6-1.5-1.2-2.9-1.8-4.4c-1-2.6-1.9-5.2-2.9-7.8c-0.2-0.5-0.2-1-0.8-1.2
			c-0.3,0.7-0.2,1.4-0.2,2.1c0.1,3.4,0.2,6.9,0.2,10.3c0.1,2.6,0.1,2.5-2.4,2.5c-2.1,0-4.3,0-6.4,0c-0.8,0-1-0.2-1.1-1
			c0-0.5,0-1,0-1.5c0.1-9.6,0.2-19.3,0-28.9c0-2.6-0.2-2.4,2.5-2.4c2.6,0,5.3,0,7.9,0c0.8,0,1.3,0.3,1.6,1.1c1.9,4.5,3.9,9,5.8,13.6
			c1.1,2.6,2.1,5.1,2.9,7.8c0.1,0.2,0.2,0.5,0.3,0.7c0.4-0.1,0.5-0.3,0.6-0.6c2.8-6.8,5.6-13.6,8.4-20.4c0.1-0.1,0.1-0.3,0.2-0.4
			c0.8-1.8,0.8-1.8,2.7-1.8c2.8,0,5.6,0,8.4,0c0.8,0,1,0.2,1,1c0,0.9,0,1.9,0,2.8c0,9.2,0,18.4,0,27.7c0,2.7,0,2.3-2.3,2.3
			c-2.1,0-4.3,0-6.4,0c-0.7,0-0.9-0.3-1-0.9c0-0.6,0-1.3,0-1.9c0.1-3.4,0.2-6.9,0.3-10.3C716.8,319.6,716.8,318.9,716.8,318.1z"/>
		<path class="st0" d="M365.2,316.4c0-4.8,0-9.6,0-14.4c0-0.4,0-0.7,0-1.1c0-1,0.2-1.3,1.3-1.2c5.5,0,11,0,16.5,0.1
			c2.1,0,4.3,0.4,6.3,1.1c4.4,1.4,7.1,4.3,8.3,8.8c1.2,5,1,9.9-0.3,14.8c-1.4,5-5,7.6-9.9,8.6c-1,0.2-2.1,0.3-3.2,0.3
			c-5.7,0-11.4,0-17.2,0c-0.4,0-0.7,0-1.1-0.1s-0.6-0.3-0.7-0.7c0-0.4,0-0.9,0-1.3C365.2,326.4,365.2,321.4,365.2,316.4L365.2,316.4
			z M378.7,307.2c-0.7,0-1.4,0-2.1,0c-1.4,0-1.5,0.2-1.5,1.4c0,0.1,0,0.1,0,0.2c0,5.3,0,10.7,0,16c0,0.4,0,0.7,0,1.1
			s0.2,0.7,0.6,0.7c0.3,0.1,0.7,0.1,1.1,0.1c1.9,0.1,3.7-0.1,5.5-0.4c3.3-0.6,5.5-2.9,6-6.4c0-0.3,0.1-0.6,0.1-0.8
			c0.4-2.4,0.2-4.7-0.3-7c-0.6-2.9-2.7-4.6-5.7-5C381.2,307.2,380,307,378.7,307.2z"/>
		<path class="st0" d="M351.3,316.7c0.1,2.6-0.3,5.2-1.2,7.8c-1.4,4.4-4.4,7.1-8.6,8.6c-1.5,0.6-3.1,0.9-4.8,1
			c-1.9,0.1-3.7,0.2-5.6,0.1c-3-0.1-5.9-0.8-8.6-2.2c-2.4-1.2-4.1-3.1-5.2-5.5c-1.3-2.8-2-5.6-2-8.7c-0.1-2.7,0.1-5.4,0.9-8
			c1.2-3.7,3.2-6.7,6.7-8.5c1.8-1,3.7-1.4,5.7-1.6c3.1-0.3,6.1-0.3,9.2,0c3.9,0.4,7.4,1.7,10,4.8c1.7,2.1,2.7,4.5,3.2,7.1
			C351.3,313.2,351.3,314.8,351.3,316.7z M332.9,306.4c-0.7,0.1-1.5-0.1-2.4,0.3c-2.5,1-4.4,2.7-5.1,5.4c-0.7,2.9-1,5.9-0.2,8.9
			c0.9,3.2,3.2,6.4,7.7,6.1c0.3,0,0.6,0,0.9,0c2.6,0,4.7-1.1,6.1-3.4c0.3-0.5,0.6-1.1,0.9-1.7c1.6-3.9,1.1-7.8-0.4-11.7
			c-0.6-1.5-1.8-2.6-3.3-3.2C335.8,306.6,334.5,306.4,332.9,306.4z"/>
		<path class="st0" d="M628,299.6c0.3,2,0.3,31.8,0,33.6c-0.3,0.4-0.8,0.2-1.2,0.2c-2.1,0-4.1,0-6.2,0c-1.9,0-2,0-2-2
			c0-2.9,0-5.9,0-8.8c0-0.7,0.1-1.4-0.2-2.1c-0.3-0.3-0.7-0.3-1-0.3c-3.9,0-7.9,0-11.8,0c-0.3,0-0.6,0-0.9,0.1
			c-0.3,0-0.5,0.3-0.5,0.6c-0.1,0.5-0.1,1,0,1.5c0,2.8,0.1,5.6,0.1,8.4c0,0.5,0,1,0,1.5c0,1-0.2,1.2-1.3,1.2c-2.4,0-4.9,0-7.3,0
			c-0.7,0-0.9-0.2-1-0.9c0-0.5,0-1,0-1.5c0-10,0-20,0-30c0-0.3,0-0.6,0-0.9c0-0.4,0.3-0.6,0.7-0.7c0.1,0,0.1,0,0.2,0
			c2.6,0,5.3,0,7.9,0c0.5,0,0.8,0.2,0.8,0.8c0,1.5,0,3,0,4.5c0,2.4,0,4.7,0,7.1c0,0.9,0.2,1.1,1.1,1.1c4.1,0,8.3,0,12.4-0.1
			c0.7,0,0.9-0.2,0.9-0.9c0-3.1,0-6.3,0-9.4c0-0.8,0-1.6,0-2.4c0-0.5,0.2-0.8,0.8-0.8C622.3,299.6,625.1,299.6,628,299.6z"/>
		<path class="st0" d="M665.4,313.3c0,2.2,0.1,4.2,0.1,6.3c0,0.5-0.3,0.8-0.8,0.8c-0.6,0-1.1,0-1.7,0c-3.3,0-6.6,0-9.9-0.1
			c-0.4,0-0.9,0-1.3,0c-0.6,0-0.8,0.3-0.8,1c0,0.4,0,0.9,0.1,1.3c0,0.9,0,1.7,0.1,2.6c0.1,1.2,0.2,1.3,1.4,1.3c0.4,0,0.9,0,1.3,0
			c4.9,0,9.7,0,14.6,0.1c1.9,0,2,0,2,1.9c0,1.5,0,3,0,4.4c-0.5,0.4-1,0.3-1.5,0.3c-8.6,0.1-17.1,0.1-25.7,0.2c-2,0-2,0-1.9-2.1
			c0.1-4.7,0.2-9.4,0.2-14.1c0-4.8-0.1-9.6-0.1-14.3c0-0.4,0-0.9,0-1.3c0-1.9,0.1-1.9,1.9-1.9c8.4,0,16.7,0,25.1,0
			c0.4,0,0.7,0,1.1,0c0.7,0,1,0.2,1,0.8c0,2,0,4,0,6c0,0.5-0.3,0.8-0.8,0.8c-0.6,0-1.1,0-1.7,0c-4.8,0-9.6,0-14.4,0
			c-0.6,0-1.1,0-1.7,0c-0.4,0-0.7,0.2-0.7,0.6c0,0.1,0,0.3,0,0.4c0.1,1.4-0.1,2.8,0.3,4.2c1.4,0.7,2.8,0.2,4.2,0.3
			c2.5,0.1,5,0,7.5,0C663.8,313,664.5,312.9,665.4,313.3z"/>
		<path class="st0" d="M440.1,299.8c0.4,1.7,0.4,5.2,0.1,7.3c-0.5,0.4-1.1,0.2-1.6,0.2c-4.9,0-9.9-0.1-14.8-0.1c-0.6,0-1.1,0-1.7,0
			c-0.5,0-0.7,0.3-0.7,0.8c0,1.4,0,2.7,0,4.1c0,0.8,0.2,1,1.1,1c0.6,0,1.1,0,1.7,0c3.1,0,6.1,0,9.2,0c0.8,0,1.6-0.1,2.3,0.3
			c0.2,1.1,0.3,5.6,0.2,6.4c-0.1,0.4-0.4,0.6-0.7,0.6c-0.5,0-1,0-1.5,0c-3.5,0-7,0-10.5-0.1c-0.6,0-1.1-0.1-1.7,0.3
			c-0.2,1.8-0.1,3.6,0,5.5c0,0.3,0.3,0.5,0.6,0.5c0.5,0,1,0,1.5,0c4.8,0,9.6-0.1,14.4-0.1c0.7,0,1.4,0,2,0c0.5,0.4,0.5,0.8,0.5,1.3
			c0,1.6,0,3.1,0,4.7c0,0.6-0.2,0.7-0.8,0.8c-0.5,0-1,0-1.5,0c-8.1,0-16.1,0.1-24.2,0.1c-0.3,0-0.6,0-0.9,0c-0.7,0-0.9-0.2-1-0.9
			c0-0.7,0-1.4,0-2.1c0-8,0-16,0-24c0-1.9-0.1-3.7-0.1-5.6c0-1.1,0.1-1.2,1.3-1.2c0.4,0,0.7,0,1.1,0c7.8,0,15.6,0,23.4,0
			C438.4,299.6,439.3,299.5,440.1,299.8z"/>
		<path class="st0" d="M284.6,299.6c1.2,0,2.4,0,3.6,0c3,0,5.8,1,8.3,2.5c3.1,2,5,4.8,5.3,8.6c0,0.7-0.2,0.9-0.8,1
			c-0.5,0.1-1,0.1-1.5,0.1c-2,0-4-0.2-6,0c-0.9,0.1-1.1-0.2-1.3-1.1c-0.1-0.3-0.1-0.6-0.1-0.8c-0.2-1-0.7-1.7-1.6-2.2
			c-2.5-1.3-5-2.1-7.8-1.4c-2.5,0.6-4.4,2-5.3,4.5c-1.5,3.9-1.5,7.8,0.1,11.7c0.9,2.3,2.6,3.7,5.1,4.2c2,0.4,4,0.3,5.9-0.3
			c0.9-0.2,1.6-0.7,2.1-1.4c0.6-0.9,1.2-1.8,1.8-2.6c0.4-0.6,0.9-0.9,1.6-0.9c2.1,0.1,4.3,0.1,6.4,0.2c0.3,0,0.6,0,0.9,0.1
			c0.5,0.1,0.8,0.3,0.7,0.9c-0.1,1.7-0.4,3.4-1.3,4.9c-1.6,2.9-4.1,4.5-7.2,5.4c-3.6,1.1-7.3,1.2-11,1.1c-2.2-0.1-4.3-0.5-6.3-1.2
			c-4.5-1.6-7.5-4.7-8.5-9.4c-1-4.3-1.1-8.6-0.2-13c0.4-1.8,1-3.6,2.1-5.1c2.5-3.6,6.1-5.5,10.5-5.9
			C281.4,299.5,283,299.6,284.6,299.6L284.6,299.6z"/>
		<path class="st0" d="M563.2,299.5c2.6,0.1,5,0,7.3,0.6c3.8,0.9,6.9,2.7,8.9,6.1c0.8,1.4,1.2,2.9,1.4,4.5c0.1,0.7-0.2,1-0.9,1.2
			c-0.3,0-0.6,0.1-0.9,0.1c-2,0-4,0.1-6,0.1c-0.9,0-1.6-0.3-1.8-1.2c-0.5-2.4-2.2-3.3-4.3-3.9c-2.7-0.7-5.3-0.8-7.9,0.7
			c-1.4,0.8-2.4,1.9-2.8,3.4c-1.2,3.8-1.3,7.6,0.1,11.3c0.3,0.9,0.8,1.7,1.4,2.4c1,1.2,2.2,2,3.8,2.2c1.9,0.3,3.8,0.2,5.7-0.3
			c1.4-0.4,2.6-1.1,3.1-2.5c0.7-2,2.1-2.5,4-2.4s3.7,0.1,5.6,0.2c0.7,0,1,0.4,0.9,1.1c-0.6,4.9-2.7,8.3-8.3,10
			c-4.6,1.4-9.3,1.5-14,0.8c-1.7-0.3-3.5-0.8-5.1-1.5c-2.9-1.3-4.8-3.5-6.1-6.4c-1.1-2.4-1.5-4.9-1.6-7.5c0-1.2,0-2.4,0-3.6
			c0-2.8,0.7-5.4,1.9-7.8c2.2-4.7,6.1-6.8,11-7.3C560.3,299.5,561.9,299.5,563.2,299.5z"/>
		<path class="st0" d="M489.6,333.3c-0.3,0.1-0.5,0.2-0.7,0.2c-2.6,0-5.1,0-7.7-0.1c-1.5,0-1.6-0.2-1.9-1.7
			c-0.2-0.9-0.3-1.8-0.5-2.7c-0.2-0.9-0.3-1-1.3-1c-1.3,0-2.6,0-3.9,0c-2.2,0-4.4-0.1-6.6-0.1c-0.9,0-1.1,0.2-1.4,1
			c-0.4,1.3-0.8,2.6-1.2,3.9c-0.1,0.4-0.4,0.8-0.9,0.8c-2.9,0-5.7,0-8.6,0c-0.1,0-0.2-0.1-0.4-0.2c-0.1-0.3,0-0.5,0.1-0.8
			c3.2-8.4,6.4-16.8,9.7-25.1c0.8-2.1,1.7-4.2,2.5-6.4c0.4-0.9,1-1.3,2-1.3c2.4,0.1,4.9,0,7.3,0c0.7,0,1.1,0.3,1.3,0.9
			c1,2.4,2,4.7,2.9,7.1c2.9,7.5,5.7,15.1,8.6,22.6C489.2,331.2,489.7,332.2,489.6,333.3z M474.9,320.1c0.1-1.1-0.6-1.9-0.8-2.9
			c-0.2-0.9-0.5-1.8-0.8-2.7c-0.3-0.9-0.2-1.9-0.8-2.8c-0.2,0.1-0.4,0.1-0.4,0.2c-0.2,0.3-0.4,0.6-0.5,0.9c-0.4,1-0.7,2-1.1,3
			c-0.4,1.1-0.9,2.2-1.3,3.4c-0.1,0.4,0.1,0.8,0.4,0.8C471.3,320.3,473.1,320.3,474.9,320.1z"/>
		<path class="st0" d="M757.7,312.2c0.1-0.1,0.3-0.2,0.3-0.3c1-2.5,2.6-4.6,3.9-6.8c0.9-1.5,1.9-3,2.8-4.6c0.3-0.5,0.7-0.9,1.3-0.9
			c2.8,0.1,5.6,0.2,8.3,0.2c0.3,0,0.6,0.1,0.8,0.5c-0.4,0.6-0.9,1.2-1.3,1.8c-3.7,5.8-7.3,11.6-11,17.3c-0.6,0.9-0.8,1.8-0.7,2.8
			c0.1,3,0.1,6,0.1,9c0,0.5,0,1-0.1,1.5c0,0.3-0.3,0.5-0.6,0.5c-0.1,0-0.3,0-0.4,0c-2.4,0-4.9,0-7.3,0c-1,0-1.2-0.2-1.2-1.3
			c0-3.1-0.1-6.1,0-9.2c0-1.5-0.3-2.8-1.1-4.1c-1.1-1.7-2.2-3.5-3.3-5.2c-2.7-4.2-5.2-8.5-8.1-12.6c-0.2-0.2-0.3-0.5-0.4-0.8
			c-0.1-0.2,0.1-0.4,0.3-0.5c0.3-0.1,0.7-0.1,1.1-0.1c2.3,0,4.6,0,6.9-0.1c1.2,0,1.8,0.4,2.4,1.3c2.1,3.2,4.2,6.5,6,9.8
			C756.9,311.3,757,312,757.7,312.2z"/>
		<path class="st0" d="M503.4,299.8c0.4-0.3,0.8-0.2,1.3-0.2c2.2,0,4.4,0,6.6,0c0.4,0,0.7,0,1.1,0.1c0.3,0,0.5,0.2,0.6,0.6
			c0.1,0.5,0.1,1,0.1,1.5c0,2.5,0,5,0,7.5c0,4.9,0,9.9,0,14.8c0,0.6,0,1.3,0.1,1.9c0,0.4,0.3,0.7,0.7,0.7c0.6,0,1.1,0,1.7,0
			c4.6,0,9.1-0.1,13.7-0.1c0.8,0,1.7,0.1,2.4,0.1c0.5,0.4,0.5,0.9,0.5,1.3c0.1,1.6,0.1,3.1,0.1,4.7c0,0.4-0.3,0.7-0.7,0.7
			c-0.4,0-0.9,0-1.3,0c-8.3,0-16.6,0.1-24.8,0.1c-0.5,0-1,0-1.5,0c-0.4,0-0.7-0.3-0.7-0.7c0-0.5,0-1,0-1.5c0-9.9,0-19.8,0-29.8
			C503.1,300.9,503,300.3,503.4,299.8z"/>
		<path class="st1" d="M233.7,298.8c0,2.1,0,4.3-0.1,6.4c0,0.4,0,0.9-0.1,1.3c0,0.2-0.3,0.4-0.4,0.4c-0.4,0.1-0.8,0.1-1.3,0.1
			c-1.8,0-3.6,0-5.3,0c-0.5,0-1,0.1-1.3,0.6c-0.3,0.7-0.1,1.4-0.1,2c0,0.8,0,1.5,0,2.3c0,0.5-0.4,0.7-0.8,0.7
			c0.1-1.4-0.4-2.8-0.8-4.1c-0.2-0.9-0.6-1.7-0.5-2.7c0.1-0.6-0.3-1.1-0.6-1.6c-0.3-0.6-0.7-1.1-1-1.6c-0.9-1.6-1.9-3.1-3.8-3.8
			c-0.1,0-0.1-0.1-0.1-0.2c0.1-1.3,0.2-2.5,0.2-3.8c0-0.6-0.3-1.1-0.8-1.4c0.9-1.4,2.4-2.1,4-2.1c1.7-0.1,3.4-0.4,5.1-0.6
			c1.8,0,3.5,0,5.3,0.1c0.5,0,1,0,1.5,0.1s0.8,0.4,0.8,0.8c0.1,0.5,0.1,1,0.1,1.5C233.7,294.9,233.7,296.9,233.7,298.8z"/>
		<path class="st2" d="M217,319.1c-0.4,0.6-0.9,1.2-1.9,0.7c-0.1-0.1-0.4,0-0.6,0.1c-0.3,0.1-0.6,0-0.7-0.3
			c-0.6-1.5-1.6-2.6-2.8-3.7c-1-0.9-1.5-2.2-2.6-3.1l-0.9-0.9c-0.3-0.2-0.6-0.4-1-0.4c-1.1,0-2.1-0.1-3.2,0.2
			c-1.1,0.4-2.2,0.4-3.3-0.2c-0.4,0.5-0.3,1.2-0.5,1.8c-0.1,0.3-0.3,0.5-0.6,0.5c-0.6,0-1.3-0.1-1.9-0.3c-0.9-0.4-1.6,0-2.2,0.7
			c-0.8,0.9-1.7,1.8-2.5,2.7c-0.5,0.7-1.3,1.1-1.7,1.9c0,0.2-0.1,0.4-0.3,0.4c0,0,0,0.1-0.1,0.1c0,0-0.1,0.1-0.1,0.1
			c0.2,0.8,0.6,1.3,1.4,1.4c0.5,0.2,0.7,0.4,0.7,0.9h2.1c0-0.3,0-0.6,0.2-0.8c0.7-1.1,1.9-1.7,3.1-2.1c1.2-0.3,2.3,0,3.3,0.9
			c1.1,1.1,2.2,2.2,3.5,3.1c1,0.7,1.4,1.8,1.4,3s-0.1,2.4-0.9,3.4c-0.3,0.3-0.4,0.8-0.4,1.2c0.6,0,1.2,0,1.8-0.2
			c0.7-0.3,1.4-0.4,2,0.1c0.6-0.4,1.3-0.8,1.9-1.3c0.6-0.5,0.7-0.7,0.2-1.4c-0.6-0.9-0.5-1.4,0.3-1.9c0.6-0.3,1.2-0.5,1.8-0.7
			c3.1-1.2,4.8-3.5,4.9-6.6C217.3,318.7,217.2,318.9,217,319.1z"/>
		<path class="st3" d="M138.7,297.8c0.3-0.1,0.7,0,0.9-0.4c0-0.1,0-0.3-0.1-0.4c-1-1.2-1.1-1.4-0.1-2.5c1.6-1.7,3.1-3.5,5-4.9
			c0.6-0.1,1-0.3,1.1-0.9l0,0c0.5-0.1,0.8-0.4,0.9-0.9l0,0c0.7-0.2,0.9-0.6,0.9-1.3l0,0c0.3,0,0.6,0,0.8,0.1
			c0.7,0.2,0.9,0.6,0.6,1.2c-0.3,0.7-0.7,1.3-0.6,2.1c-1.3,1.7-2,1.8,0.5,3.3c0.2,0.1,0.5,0.3,0.7,0.5c1.6,1.2,3.4,2.3,4.7,4
			c0.6,0.7,1.3,1.3,2.1,1.8c1.2,1,2.3,1.2,3.7,0.3c0.1-0.1,0.3,0,0.4-0.1c0.1,0,0.1,0,0.2,0c0.8-0.1,1.5,0.1,1.7,1
			c0,0.1,0.2,0.2,0.3,0.3c-0.4,0.7-1,1.2-1.5,1.7c-1.7,1.7-3.5,3.5-5.2,5.2c-0.7-0.5-1.6-0.5-2.5-0.5c-1.9-0.1-3.6-0.7-4.7-2.4
			c-0.2-0.2-0.3-0.5-0.6-0.6c-1.6-0.9-2.7-2.5-4.1-3.7c-0.4-0.3-0.8-0.6-1.1-0.9c-0.7-0.5-1.4-0.5-2.2,0c0.1-0.9-0.2-1.6-1.2-1.8
			C139,298.1,138.9,297.9,138.7,297.8z"/>
		<path class="st0" d="M116.4,323.9c0.1,3.9,0.1,5.3,0.1,5.7c0,0.2,0,0.5,0,0.7c0,0,0,0.4,0,0.8c0,0.1,0,0.2,0.1,0.3
			c0.1,0.1,0.2,0.2,0.4,0.2c0.5,0.1,0.7,0.1,0.7,0.1c0.4,0,0.7,0,1,0c1.4-0.1,3.9-0.1,4-0.1c0.5,0,1.3,0.1,2.2,0.2
			c-0.4,1.2-0.4,2.2-0.4,2.9c0,1.6,0,3.1,0,4.7c0,0.5-0.3,0.8-0.8,0.8c-1.2,0-2.4,0-3.6,0c-0.6,0-1.1,0-1.7,0
			c-0.7,0.1-1,0.4-1.1,1.1c-0.1,0.4,0,0.9-0.1,1.3c0,0.4-0.4,0.5-0.8,0.6c0-0.8,0-1.6,0-2.3c0-0.6-0.2-0.9-0.9-0.9
			c-1.6,0-3.3,0-4.9,0c-0.6,0-1.1,0-1.7,0c-0.3,0-0.5-0.2-0.6-0.5c-0.1-0.4-0.1-0.9-0.1-1.3c0-4.3,0-8.7,0-13c0-0.1,0-0.3,0-0.4
			c0-0.6,0.3-0.9,0.9-0.9c0.8,0,1.1-0.1,1.5,0C111.2,324.1,112.6,324.2,116.4,323.9z"/>
		<path class="st0" d="M241.9,296.4c0-2.4,0-4.8,0-7.2c0-1.9,0-3.8,0-5.8c0-0.4,0-0.7-0.4-0.9c-2.6,0-5.1,0-7.7,0.1
			c-1.7,0-3.4,0-5.1,0c-0.6,0-1.1,0.1-1.7,0.3c-0.6,0.3-1.1,0.7-1,1.5c0,0.6,0,1.3-0.3,1.9c-0.2,0.5-0.2,1.1,0,1.7
			c0.4,0.9,0.3,1.8,0.3,2.7c1.8,0,3.5,0,5.3,0.1c0.5,0,1,0,1.5,0.1s0.8,0.4,0.8,0.8c0.1,0.5,0.1,1,0.1,1.5c0,1.9,0,3.8,0,5.7
			c0.3-0.1,0.6-0.1,0.9-0.2c0.3,0,0.7,0,1,0c0.1,0,0.1,0,0.2,0c0.6,0,1.1,0,1.7,0c0.1,0,0.1,0,0.2,0c0.1,0,0.2,0,0.3,0
			c0.5,0,0.9,0,1.4,0c0.8-0.4,1.6-0.1,2.4-0.2C242,297.9,241.9,297.1,241.9,296.4z"/>
		<path class="st4" d="M192.7,293.8c0.9,0.1,1.7,0.1,2.6,0.1c0.1-0.1,0.3-0.2,0.4-0.3c0.2-2.1,0.2-3.7,0.2-4.8
			c0.1-3.4-0.1-5.1,0-8.6c0.1-1.2,0.2-2.2,0.2-2.8c-1.8-0.1-3.5-0.3-5.3,0.3c-0.4,0.1-0.8,0.1-1.3,0.1c-1.4,0-2.7,0-4.1,0
			c-0.4,0-0.9,0-1.3,0.1c-0.3,0-0.5,0.2-0.6,0.6c0,0.5-0.1,1-0.1,1.5c0,3.9,0,7.8,0,11.7c0,0.3,0,0.6,0,0.9c0,1,0.2,1.2,1.1,1.2
			c1.4,0,2.8,0,4.3,0C190.3,293.7,191.5,293.6,192.7,293.8z"/>
		<path class="st5" d="M141.9,328.8c4.1,0,8.2,0,12.3,0c0,1.6,0,6.6,0,8.2c0,1.5,0,6.4,0,8c-4.1,0-8.2,0-12.3,0
			c0.3-2.9,0.6-5.7,0.5-8.6c0-1.5,0-3,0-4.5C142.4,330.9,142.3,329.8,141.9,328.8z"/>
		<path class="st4" d="M153.9,345c0-5.4,0-10.8,0-16.2c3.5,0,7,0,10.5,0c0.9,0,1.1,0.2,1.1,1.1c0,4.6,0,9.3,0,13.9
			c0,1-0.2,1.2-1.3,1.2C160.8,345.1,157.3,345.1,153.9,345z"/>
		<path class="st6" d="M207.4,277.5c2.3-0.1,4.6-0.2,6.9,0.2c1.1,0.2,2.2-0.1,3.3,0.2c0,3.4,0,6.8,0,10.2c0,1.8-0.3,3.6-1.2,5.2
			c-0.1,0.1,0,0.3-0.1,0.4c-3.6,0.1-7.1,0.1-10.7-0.1c0.3-1,0.4-2.1,0.4-3.1c0.1-2.7-0.3-5.4,0.4-8.1c-0.2-1.6,0.5-3.1,0.9-4.5
			C207.4,277.7,207.4,277.6,207.4,277.5z"/>
		<path class="st6" d="M142.9,328.8c0.4,1,0.5,2,0.4,3.1c0,1.5,0,3,0,4.5c0.1,2.9-0.1,5.8-0.5,8.6c-3.4,0.1-6.9,0.1-10.3,0
			c0-4.6,0-9.2,0-13.7c0-0.9,0-1.9,0-2.8c0.7,0.4,1.5,0.3,2.3,0.3C137.6,328.8,140.2,328.8,142.9,328.8z"/>
		<path class="st5" d="M207.3,277.8c-0.4,1.5-1.1,2.9-0.9,4.5c-0.7,2.7-0.3,5.4-0.4,8.1c0,1.1-0.1,2.1-0.4,3.1c-3.3,0-6.6,0-9.9,0.1
			c0-4.4,0-8.9,0-13.3c0-1,0.1-2,0.5-2.9c1.8,0,3.6,0,5.5,0c0.1,0.4,0.2,0.7,0.6,0.7c1.3,0,2.6,0.3,3.8-0.2
			C206.5,277.8,206.9,277.8,207.3,277.8z"/>
		<path class="st7" d="M132.6,324c0-0.4,0.1-0.9-0.3-1.2c-0.8-0.8-1.2-1.9-2.3-2.5c-0.9-0.5-1.6-1.4-2.2-2.3
			c-0.2-0.3-0.4-0.6-0.7-0.8c-0.8-0.6-1-1.4-1.1-2.4c0-1-0.5-2.1-0.4-3.2c0-0.8,0.1-1.5,0.7-2.2c0.4-0.4,0.6-1,0.6-1.6
			c1.9,0,3.7-0.1,5.6-0.1c0.1,0.1,0.3,0.4,0.3,0.9c0,0.4-0.1,0.7-0.1,0.9c0.7,1.1,1.4,1.8,2,2.3c1.3,1.1,2.5,1.8,4.5,2.9
			c0.6,0.3,1.1,0.6,1.4,0.7c-0.1,0.9-0.1,1.6-0.1,2c0.1,3.2,0.3,5.7,0.3,5.7c0,0.7-0.2,0.8-0.9,0.8C137.4,324.1,135,324,132.6,324z"
			/>
		<path class="st8" d="M240,282.7c-1.9,0-3.8-0.1-5.8-0.1c-0.4-0.2-0.4-0.5-0.5-0.9c0-0.7,0-1.4-0.1-2.1c-0.1-1.1-0.4-1.4-1.5-1.4
			c-1.9,0-3.8,0-5.7,0c-1.4,0-2.8,0.1-4.2-0.4c-0.9-0.2-1.8-0.1-2.8-0.1c-0.3,0-0.7,0-1-0.2c-0.1,0-0.3,0-0.4,0
			c-0.2,0.1-0.3,0.2-0.5,0.3c0,3.4,0,6.8,0,10.2c0,1.8-0.3,3.6-1.2,5.2c-0.1,0.1,0,0.3-0.1,0.4c0.3,0,0.5,0,0.8,0
			c0.9-1.4,2.4-2.1,4-2.1c1.7-0.1,3.4-0.4,5.1-0.6c0-0.9,0.1-1.8-0.3-2.7c-0.2-0.5-0.2-1.1,0-1.7c0.3-0.6,0.3-1.2,0.3-1.9
			c0-0.7,0.4-1.1,1-1.5c0.5-0.3,1.1-0.3,1.7-0.3c1.7,0,3.4,0,5.1,0c2.6,0,5.1,0,7.7-0.1C241.1,282.5,240.5,282.7,240,282.7z"/>
		<path class="st9" d="M146.8,310.6c-1.8,0.5-3.2-0.3-4.1-1.8c-0.6-1-1.4-1.8-2.3-2.5c-1-0.9-1.1-2.1-1.5-3.2
			c-0.1-0.1-0.1-0.3,0-0.4c0.7-1.2,0.9-2.6,2.1-3.4c0.1-1-0.1-1.7-1.2-1.8c-0.2,0-0.3-0.2-0.5-0.3c-3.1,0.6-6,3.5-6.4,6.6
			c-0.1,1.3-0.3,2.7-0.4,4c0,0,0,0.1,0,0.1c0,0,0,0,0,0c0,0,0,0,0,0c0,0,0,0.1,0,0.1c0,0,0,0,0,0c0,0,0,0.1,0,0.1c0,0,0,0.1,0,0.1
			c0,0,0,0,0,0c-0.1,0.2-0.1,0.3-0.1,0.5c0,0,0,0,0,0c0,0.1-0.1,0.1-0.1,0.2c0,0,0,0,0,0c-0.1,0.1-0.1,0.1-0.1,0.2
			c0,0.1,0,0.3,0,0.4c0,0.1,0.1,0.2,0.2,0.3c0,0,0.1,0,0.1,0c0.7,0.6,1.1,1.7,1.9,2.3c1.5,1.1,2.8,2.3,4.7,2.8
			c0.6,0.1,1.1,0.3,1.4,0.9c0.6-0.1,1.3-0.1,1.5,0c1.3-0.3,2.5-0.3,3.7-0.8v-0.9c0-0.5,0.1-1,0.6-1.3c0.7-0.4,0.9-1.1,1.1-1.8
			C147.3,310.9,147,310.5,146.8,310.6z"/>
		<path class="st10" d="M207.2,329.8c-0.6,0.2-1.2,0.2-1.8,0.2c-0.9,0.2-1.8,0.5-2.6,0.9c0.1,0.9-0.2,1.7-1,2.4
			c-1.1,0.9-1.9,1.9-3.1,2.6c-1.1,0.7-2.1,0.7-3.2,0c-0.2-0.2-0.5-0.3-0.7-0.5c-1.6-1.5-3.3-2.8-5-4c-0.5-0.4-0.8-1-1-1.6
			c-0.7-2-0.4-3.7,1-5.3c1-1.1,1.9-2.2,3-3.2c0-0.5-0.2-0.8-0.7-0.9c-0.9-0.2-1.4-0.8-1.5-1.7c0,0,0,0,0,0c0,0.1,0,0.1-0.1,0.2
			c0,0,0,0,0,0c-0.1,0.1-0.1,0.2-0.2,0.3c-0.1,0.1-0.2,0.2-0.3,0.3c0,0-0.1,0.1-0.1,0.1c0,0,0,0,0,0c0,0,0,0,0,0.1
			c-1.5,1.5-3,2.9-4.4,4.4c-0.9,0.9-1.7,1.8-2.5,2.7c-0.5,0.6-0.5,0.8,0,1.4l3,3c3.2,3.2,6.3,6.4,9.5,9.6c1.5,1.6,1.8,1.7,3.4,0.1
			c0.1-0.2,0.3-0.3,0.4-0.5c1.9-2.2,3.9-4.2,5.9-6.2c1.4-1.4,2.7-2.8,4-4.2C208.5,329.4,207.8,329.6,207.2,329.8z"/>
		<path class="st7" d="M218,298.6c0,0.1,0.1,0.1,0.1,0.2c1.9,0.7,2.9,2.2,3.8,3.8c0.3,0.6,0.7,1.1,1,1.6s0.6,1,0.6,1.6
			c-0.1,1,0.3,1.8,0.5,2.7c0.3,1.4,0.8,2.7,0.8,4.1c-1.2,0-2.4,0-3.6,0c-1.7,0-3.3-0.7-4.8-1.5c-1-0.5-1.8-1.3-2.6-2.1
			c-1-1-2.2-1.8-3.5-2.4c0-0.3,0-0.6,0-0.9c0-2.2,0-4.4-0.1-6.5c0.1-0.3,0.4-0.4,0.7-0.4c0.7,0,1.4,0,2,0s1.1,0,1.7,0
			C215.7,298.8,216.9,298.7,218,298.6z"/>
		<path class="st8" d="M132.6,331.2c-1.3,0.1-2.5,0.2-3.8,0.3c-1.3,0.1-2.6,0.2-3.9,0.3c-0.1,0.3-0.2,0.9-0.3,1.5
			c-0.1,0.5-0.1,0.9-0.1,1.5c0,0.5,0.1,3.7,0,4.7c0,0.1,0,0.3-0.2,0.4c-0.2,0.2-0.5,0.2-0.7,0.2c-1.5,0-2.2,0-3.6,0
			c-0.4,0-0.9,0-1.6,0c-0.1,0-0.2,0-0.4,0c-0.4,0-0.6,0-0.8,0c-0.2,0-0.4,0-0.5,0.2c-0.2,0.1-0.2,0.3-0.2,0.5c0,0.6,0,1.1,0,1.7
			c0,0.2,0,0.5,0,0.7c0,0,0,0-0.1,0c0,0.1-0.1,0.3-0.1,0.4c0,1.1,0.1,1.3,1.2,1.3c5,0,10.1,0,15.1,0c0-2.3-0.1-4.5-0.1-6.9
			C132.6,335.8,132.6,333.5,132.6,331.2z"/>
		<path class="st9" d="M225,313.1c0-0.1-0.1-0.2-0.1-0.3c-0.1-0.1-0.1-0.2-0.2-0.2c-1.2,0-2.3-0.1-3.5-0.1c-1.7,0-3.3-0.7-4.8-1.5
			c-0.9-0.5-1.8-1.3-2.6-2.1c-1-1-2.2-1.8-3.5-2.4c-0.6,0.6-1.3,0.4-2.2,0.4c-2,0.2-3.9,0.7-5.6,1.8c-1.1,0.8-2.2,1.6-2.6,3
			c1.1,0.6,2.2,0.6,3.3,0.2c1.1-0.3,2.1-0.2,3.2-0.2c0.4,0,0.7,0.1,1,0.4s0.6,0.6,0.9,0.9c1,0.9,1.6,2.2,2.6,3.1
			c1.2,1,2.3,2.2,2.8,3.7c0.1,0.3,0.4,0.4,0.7,0.3c0.2-0.1,0.5-0.2,0.6-0.1c0.9,0.6,1.4,0,1.9-0.7c0.1-0.3,0.3-0.5,0.5-0.7v-0.1
			c0.1-0.7-0.1-1.4,0.2-2c0.4-1.7,0.4-1.7,2-1.7c0.9,0,1.3,0,2.1,0.1c1.8,0.1,2.7,0.2,3-0.2C225.2,314.4,225.2,313.6,225,313.1z"/>
		<path class="st10" d="M167.5,295.3c-3.4-2.9-6.5-6.3-9.7-9.6c-1.4-1.5-2.8-2.9-4.2-4.3c-0.5-0.5-0.8-0.5-1.3-0.1
			c-0.7,0.7-1.4,1.3-2,2c-1.1,1.1-2.1,2.3-3.3,3.4c0,0,0,0,0,0c0,0.1-0.1,0.2-0.2,0.3c0.3,0,0.5,0,0.7,0.1c0.6,0.2,0.9,0.6,0.6,1.2
			c-0.3,0.6-0.7,1.3-0.6,2.1c1-0.3,2-0.7,2.9-1.1c1.6-0.5,3.1-0.2,4.5,0.6c0.8,0.5,1.6,1,2.2,1.7c0.9,0.9,1.9,1.7,2.8,2.6
			c0.8,0.7,1.2,1.5,0.7,2.6c-0.3,0.7-0.5,1.4-0.8,2c-0.2,0.4-0.3,0.9-0.3,1.4c0.1,0,0.1,0,0.2,0c0.9-0.1,1.5,0.1,1.7,1
			c0,0.1,0.2,0.2,0.3,0.3c1-0.9,2-1.8,3-2.7c1.1-0.9,2.3-1.7,3.1-2.9C167.7,295.7,167.6,295.4,167.5,295.3z"/>
		<path class="st2" d="M145.4,315.3c0-0.3,0-0.6,0-0.9c0-0.5,0.2-0.8,0.3-1c0.1-0.2,0.2-0.4,0.2-0.5c0.5-0.9,1.2-1.1,1.2-1.6
			c0-0.2-0.1-0.4-0.5-0.6c-1.9,0.5-3.2-0.3-4.1-1.8c-0.6-1-1.4-1.8-2.3-2.5c-1.1-0.9-1.2-2.1-1.5-3.2c0-0.1,0-0.3,0-0.4
			c0.6-1.2,0.9-2.6,2.1-3.4c0.7-0.5,1.5-0.5,2.2,0c0.4,0.3,0.8,0.6,1.1,0.9c1.4,1.2,2.5,2.8,4.1,3.7c0.2,0.1,0.4,0.4,0.6,0.6
			c1.1,1.7,2.8,2.3,4.7,2.4c0.9,0,1.7,0,2.5,0.5c-0.3,0.4-0.6,0.8-0.9,1.2c-0.5,0.5-1.1,0.6-1.7,0.3c-0.3-0.2-0.6-0.4-0.9-0.5
			c-0.6-0.3-1.1-0.1-1.4,0.6s-0.6,1.4-0.8,2.2C149.4,313.8,147.9,315,145.4,315.3z"/>
		<path class="st0" d="M246.1,280.8c-0.5,0-0.6,0-0.8,0c-1.5,0-1.9-0.4-2-1.8c-0.2-2.8,0.4-2.9,2.6-3.1c0.4,0,0.7,0,1.1,0
			c0.8,0.1,1.1,0.4,1.3,1.2c0.1,0.4,0.1,0.9,0.1,1.3C248.2,280.8,248.3,280.7,246.1,280.8z"/>
		<path class="st0" d="M104.6,346.9c-0.1,0-0.1,0-0.2,0c-2.2,0-2.7-0.3-2.5-2.8c0.2-1.8,0.5-2.1,2.2-2.1c2.7-0.1,2.8-0.1,2.7,2.6
			c0,0.2,0,0.4,0,0.6c-0.1,1.5-0.2,1.6-1.8,1.7C104.9,346.9,104.7,346.9,104.6,346.9L104.6,346.9z"/>
		<path class="st11" d="M237.6,304c-0.2-1.3-0.3-1.7,1.4-1.6c0.3,0,0.6,0,0.9,0c2.3,0,2.3,0,2.2,2.4c0,0.4,0,0.7-0.1,1.1
			c-0.1,1-0.3,1.2-1.3,1.3c-0.6,0-1.1,0.1-1.7,0.1c-0.8,0-1-0.1-1.1-1C237.8,305.5,237.7,304.8,237.6,304z"/>
		<path class="st11" d="M108.3,316.9c1.3-0.4,2.7-0.3,4-0.2c0.5,4.1,0.4,3.7-3.2,3.6c-0.4,0-0.7-0.2-0.8-0.6
			C108.2,318.8,107.9,317.9,108.3,316.9z"/>
		<path class="st8" d="M233.8,281.7c0-1,0-2,0-3c0-0.8-0.4-1.1-1.2-1.2c-0.4,0-0.9,0-1.3,0c-1.9,0-3.8,0-5.7,0c-0.3,0-0.7,0-1,0
			c-0.8,0.1-1.5,0.1-2.3,0c-0.4,0-0.8,0-1.2-0.1l-1.1,0.1c0,0,0,0-0.1,0c0,0-0.1,0-0.2,0c-0.5,0.1-1,0.2-1.5,0.2
			c0.3,0.1,0.7,0.2,1,0.2c0.9,0,1.9-0.1,2.8,0.1c1.4,0.4,2.8,0.3,4.2,0.4c1.9,0,3.8,0,5.7,0c1.1,0,1.4,0.3,1.5,1.4
			c0.1,0.7,0,1.4,0.1,2.1c0,0.4,0.1,0.7,0.5,0.9C233.8,282.4,233.8,282,233.8,281.7z"/>
		<path class="st11" d="M249.6,275.2c-1.1,0-1.5-0.3-1.5-1c-0.1-0.7,0.2-1.3,0.9-1.5c0.5-0.1,1-0.2,1.5-0.2c0.8,0,1.1,0.4,1.2,1.2
			c0.1,0.8-0.2,1.2-1,1.4C250.3,275.1,249.8,275.2,249.6,275.2z"/>
		<path class="st11" d="M248.7,297.1c0,1.4-0.8,2-2.2,1.6c-0.1,0-0.1-0.1-0.2-0.1c-0.5-0.4-0.4-1-0.3-1.6c0-0.5,0.2-0.9,0.7-1
			c0.4-0.1,0.8-0.2,1.3-0.2s0.8,0.3,0.8,0.8C248.7,296.9,248.7,297,248.7,297.1z"/>
		<path class="st11" d="M100.1,350.4c-0.2,0-0.5-0.1-0.7-0.1c-0.3-0.1-0.5-0.3-0.5-0.6c0-0.2,0-0.4-0.1-0.6
			c-0.1-1.1,0.6-1.8,1.9-1.6c0.6,0.1,1,0.5,1.1,1.1c0,0.3,0,0.6,0,0.8c0,0.6-0.3,0.9-0.9,1C100.6,350.4,100.4,350.4,100.1,350.4z"/>
		<path class="st11" d="M110.6,354.6c-1,0-1.4-0.3-1.5-1.2c-0.2-1.4,0.7-2.1,2.1-1.8c0.1,0,0.1,0.1,0.2,0.1c0.5,0.3,0.8,2.1,0.4,2.6
			C111.4,354.6,111,354.5,110.6,354.6z"/>
		<path class="st11" d="M103,327.2c-0.1,0-0.3,0-0.5,0c-0.8-0.1-1.2-0.6-1.1-1.5c0-0.4,0.2-0.7,0.6-0.7c0.6-0.1,1.1-0.1,1.7-0.1
			c0.5,0,0.7,0.3,0.8,0.8C104.7,326.9,104.3,327.2,103,327.2z"/>
		<path class="st11" d="M240,269c0.3,0.1,0.6,0.1,0.9,0.2c0.4,0.1,0.5,0.5,0.5,0.8c0,0.4-0.1,0.7-0.5,0.8c-0.7,0.2-1.4,0.3-2.1,0.1
			c-0.4-0.1-0.7-0.6-0.6-1c0-0.4,0.3-0.7,0.6-0.8C239.2,269.1,239.7,269.1,240,269z"/>
		<path class="st5" d="M205,277.3c-0.4,0-0.9,0-1.2,0.1c-0.3,0-0.3,0-1.7,0.1c-0.2,0-0.4,0-0.5,0c0.1,0.4,0.2,0.7,0.6,0.7
			c1.3,0,2.6,0.3,3.8-0.2c0.4-0.2,0.8-0.2,1.3-0.1c0-0.1,0-0.2,0-0.3c0-0.1-0.1-0.1-0.1-0.2C206.5,277.4,205.8,277.4,205,277.3z"/>
		<path class="st1" d="M124.9,307.8c-0.1,0.1-0.4,0.3-0.4,0.4c0,0.4,0,0.7,0,1.1c0,0.1,0,0.3,0,0.4c0,0,0,0,0,0.1
			c0,1.2-0.1,2.4,0.1,3.6c0.3-0.4,0.2-0.9,0.2-1.4C124.9,310.6,124.9,309.2,124.9,307.8z"/>
		<path class="st0" d="M239.5,298.7c0.8-0.4,1.6-0.1,2.4-0.2c-0.1,0.2-0.3,0.3-0.5,0.3s-0.3,0-0.5,0
			C240.8,298.8,240.4,298.7,239.5,298.7z"/>
		<path class="st10" d="M146.4,288c-0.1,0.6-0.6,0.8-1.1,0.9C145.5,288.5,145.8,288.1,146.4,288z"/>
		<path class="st10" d="M148.1,285.9c0,0.6-0.2,1.1-0.9,1.3C147.2,286.6,147.8,286.3,148.1,285.9z"/>
		<path class="st10" d="M147.2,287.2c-0.1,0.5-0.4,0.8-0.9,0.9C146.4,287.5,146.7,287.2,147.2,287.2z"/>
		<path class="st6" d="M132.5,324.9c-0.3-0.3-0.3-0.6,0.2-0.7C132.6,324.4,132.5,324.7,132.5,324.9z"/>
		<path class="st5" d="M124.6,315.5c0.1,0,0.1,0.1,0.1,0.2s-0.1,0.1-0.1,0.1c-0.1,0.1-0.1,0-0.2,0c0,0,0-0.1,0-0.2
			C124.5,315.6,124.5,315.5,124.6,315.5z"/>
		<path class="st12" d="M199.4,329.4c-0.1,0-0.4-0.1-0.7-0.3c-0.6-0.3-1.1-0.8-1.4-1.4c-0.9-1.4-1.6-2.8-2.2-4.3
			c-0.3-0.7-0.2-1.4-0.2-2.1h-2.1c-0.1,0.1-0.2,0.2-0.3,0.3c-0.1,0-0.1,0-0.2,0.1c-0.1,0.1-0.2,0.2-0.3,0.3l-0.2,0.2
			c-0.1,0.1-0.2,0.2-0.4,0.3c-0.2,0.2-0.3,0.2-0.4,0.3c-0.5,0.3-0.6,0.7-1.4,1.5c-0.3,0.3-0.3,0.2-0.4,0.4c-0.4,0.5-0.6,1.1-0.7,2
			c-0.2,1.5-0.3,2.3,0.1,3.2c0.4,0.9,0.9,1.5,1.1,1.7c0.2,0.2,0.3,0.3,0.4,0.4c0.1,0.1,0.2,0.2,0.4,0.3c0.2,0.2,0.4,0.3,0.6,0.4
			c0.1,0.1,0.2,0.2,0.3,0.4c0.6,0.6,0.9,0.6,1.5,1.2c0.4,0.3,0.3,0.4,0.6,0.6c0.2,0.2,0.4,0.3,0.8,0.5c0.2,0.1,0.3,0.2,0.4,0.3
			c0.3,0.1,0.6,0.3,0.8,0.4c1.1,0.7,2.1,0.7,3.2,0c1.2-0.7,2.1-1.7,3.1-2.6c0.3-0.3,0.5-0.5,0.8-0.9c0.4-0.6,0.6-1.2,0.7-1.6
			C201.6,330.2,200.3,329.7,199.4,329.4z"/>
		<path class="st3" d="M202.8,330.9c-0.7-0.1-1.2-0.2-1.5-0.3c-0.6-0.2-0.7-0.5-2.2-1c-0.9-0.3-1.6-0.9-2.1-1.7
			c-0.9-1.5-1.8-2.5-2.2-4.3c-0.1-0.5-0.3-1.3-0.3-2.2c0-0.1-0.1-0.3-0.1-0.5c0-0.3,0.3-0.6,0.5-0.7c1.5-1.3,3-1.6,3-1.6
			c0.6-0.1,1.1-0.2,1.7-0.1c0.6,0.1,1.2,0.5,1.6,1c1.1,1.1,2.2,2.2,3.5,3.1c1,0.7,1.4,1.7,1.4,3c0,1.2-0.1,2.4-0.9,3.4
			c-0.3,0.3-0.4,0.7-0.4,1.2c-0.3,0.1-0.6,0.3-1,0.4C203.4,330.8,203.1,330.9,202.8,330.9z"/>
		<path class="st12" d="M147.8,290.2c1-0.4,2-0.7,3-1.1c1.6-0.5,3.1-0.2,4.5,0.6c0.8,0.5,1.5,1,2.2,1.7c0.9,0.9,1.8,1.8,2.8,2.6
			c0.8,0.7,1.2,1.6,0.7,2.6c-0.3,0.6-0.5,1.3-0.8,2c-0.2,0.5-0.3,0.9-0.3,1.4c-0.1,0-0.3,0-0.4,0.1c-1.3,0.9-2.4,0.7-3.7-0.3
			c-0.7-0.6-1.5-1.1-2.1-1.8c-1.3-1.7-3.1-2.7-4.7-4c-0.2-0.2-0.4-0.4-0.7-0.5C145.8,292,146.5,291.9,147.8,290.2z"/>
		<path class="st1" d="M132.4,322.8c-0.8-0.8-1.2-1.9-2.3-2.5c-0.9-0.5-1.6-1.4-2.2-2.3c-0.2-0.3-0.4-0.6-0.7-0.8
			c-0.8-0.6-1-1.4-1.1-2.4c0-1-0.5-2.1-0.4-3.2c0-0.8,0.1-1.5,0.7-2.2c0.4-0.4,0.6-1,0.6-1.6c-0.7,0-1.4,0-2.2-0.1
			c0,1.4,0,2.8,0,4.2c0,0.5,0.1,1-0.2,1.4c0,0.7,0,1.4-0.1,2.1l0,0c-0.1,0.1,0,0-0.1,0.1c0,0,0,0,0,0.1c0,0,0,0,0,0.1c0,0,0,0,0,0.1
			l0,0l0,0c-0.8,0-1.6,0.1-2.3,0.1c-1.6,0-3.1,0-4.7,0c-0.9,0-1,0.2-1,1s0,1.6,0,2.4c0,1.5,0,3,0,4.5c0,1.9,0,3.8,0,5.8
			c0,0.5,0,1,0,1.5c0,0.4,0.3,0.7,0.7,0.7c0.6,0,1.1,0,1.7,0c2.1,0,4.1-0.1,6.2,0.1c2.6-0.2,5.1-0.4,7.7-0.6v-2.8
			c0-0.6-0.1-1.2-0.1-1.9l0,0l0,0c0-0.2,0-0.3,0-0.5c0-0.1,0-0.2,0-0.3V325v-0.1v-0.1l0,0c0-0.1,0.1-0.3,0.1-0.4v-0.1l0,0v-0.1
			C132.6,323.6,132.7,323.1,132.4,322.8z"/>
		<path class="st4" d="M203.8,277.9"/>
		<path class="st2" d="M195.5,319.3C195.5,319.3,195.5,319.3,195.5,319.3c0-0.1-0.1-0.2-0.2-0.2c-0.1-0.1-0.3-0.1-0.4-0.1
			c-0.1,0-0.2,0.1-0.3,0.2c0,0.1-0.1,0.1-0.1,0.2c0,0,0,0,0,0c0,0-0.1,0.1-0.1,0.1c-0.1,0.1-0.2,0.2-0.3,0.3
			c-0.2,0.2-0.3,0.4-0.4,0.6c0,0,0,0,0,0c0,0,0,0,0,0c0,0.1,0,0.1-0.1,0.2c0,0,0,0,0,0l0,0c0,0,0,0.1,0,0.1c0,0.2,0.2,0.4,0.4,0.5
			c0.2,0.1,0.4,0.1,0.5-0.1c0-0.1,0-0.2,0-0.2c0-0.1,0-0.1,0-0.2c0-0.1,0-0.1,0-0.1c0,0,0-0.1,0-0.1c0,0,0-0.1,0.1-0.1
			c0.2-0.3,0.3-0.4,0.3-0.4c0.3-0.3,0.4-0.3,0.4-0.5c0-0.1,0-0.2,0-0.2C195.6,319.6,195.6,319.4,195.5,319.3z"/>
	</g>
	<g>
		<path class="st13" d="M125.8,314.3"/>
	</g>
	<g>
		<path class="st13" d="M125.8,314.3"/>
	</g>
	<g>
		<path class="st13" d="M125.8,314.4"/>
	</g>
	<g>
		<path class="st13" d="M126,314.4"/>
	</g>
	<g>
		<path class="st13" d="M125.8,314.3"/>
	</g>
	<g>
		<path class="st13" d="M125.3,313.8"/>
	</g>
	<path class="st5" d="M126,311.7"/>
	<path class="st5" d="M124.6,311.7"/>
	<g>
		<path class="st13" d="M126.2,306.6"/>
	</g>
	<g>
		<path class="st13" d="M126.2,306.5"/>
	</g>
	<path class="st13" d="M125.9,306.9"/>
	<path class="st6" d="M133.8,324.9"/>
	<path class="st7" d="M128.1,309.4c0-0.3-0.2-0.5-0.5-0.5c-0.3,0-0.5,0.2-0.5,0.5c0,0,0,0,0,0c0,0,0,0,0,0.1c0,0,0,0.1,0,0.1
		c0,0,0,0,0,0.1c0,0.1-0.1,0.2-0.1,0.2c-0.1,0.2-0.1,0.4-0.1,0.7c0,0.4,0,0.8,0,1.3c0,0.3,0.2,0.5,0.5,0.5c0.3,0,0.5-0.2,0.5-0.5
		c0-0.4,0-0.8,0-1.3c0,0,0,0,0-0.1c0,0,0,0,0,0c0,0,0-0.1,0-0.1c0-0.1,0-0.1,0.1-0.2c0,0,0.1-0.1,0,0
		C128,309.9,128.1,309.6,128.1,309.4z"/>
	<path class="st3" d="M149.6,285.3c-0.1-0.1-0.2-0.2-0.4-0.1c-0.1,0-0.3,0-0.4,0.1c-0.1,0.1-0.2,0.2-0.3,0.3c-0.1,0-0.1,0-0.2,0
		c0,0-0.1,0-0.1,0c-0.2,0-0.3,0.1-0.4,0.2c-0.2,0.3-0.4,0.5-0.6,0.8c0,0,0,0.1-0.1,0.1c0,0,0,0,0,0c0,0,0,0,0,0
		c0,0.1-0.1,0.1-0.1,0.2c-0.1,0.1-0.2,0.2-0.3,0.3c-0.3,0.3-0.6,0.6-0.9,0.9c-0.1,0.1-0.1,0.1-0.2,0.2c-0.1,0-0.1,0.1-0.2,0.1
		c0,0,0,0,0,0c-0.1,0-0.2,0.1-0.3,0.2c-0.1,0.1-0.1,0.3-0.1,0.4c0.1,0.3,0.3,0.4,0.6,0.3c0.1,0,0.2-0.1,0.2-0.1
		c0.1,0,0.3-0.1,0.4-0.2c0,0,0.1-0.1,0.1-0.1c0,0,0,0,0.1,0c0.2-0.2,0.4-0.3,0.6-0.5c0,0,0.1-0.1,0.1-0.2c0,0,0,0,0,0
		c0.4-0.1,0.7-0.4,0.9-0.7c0,0,0,0,0,0c0.1,0,0.1-0.1,0.2-0.1c0.5-0.3,0.9-0.7,1.3-1.2c0.1-0.1,0.1-0.2,0.1-0.4
		C149.8,285.5,149.7,285.4,149.6,285.3z"/>
</g>
<path class="st10" d="M204.9,331.1l-0.1-0.1c0-0.1-0.1-0.1-0.2-0.2c0,0-0.1,0-0.1-0.1c-0.1,0-0.2,0-0.3,0l-0.1,0c0,0,0,0-0.1,0
	c0,0,0,0,0,0c0,0-0.1,0-0.1,0c0,0,0,0-0.1,0c0,0-0.1,0-0.1,0.1c0,0-0.1,0.1-0.1,0.1c0,0,0,0,0,0c0,0-0.1,0.1-0.1,0.1
	c0,0.1-0.1,0.1-0.1,0.2c0,0.1,0,0.1,0,0.2c0,0.1,0,0.1,0.1,0.2c0,0.1,0.1,0.1,0.1,0.1c0,0,0.1,0,0.1,0.1c0.1,0,0.2,0,0.3,0
	c0,0,0,0,0.1,0c0,0,0,0,0,0c0,0,0,0,0,0c0.1,0,0.2,0,0.2-0.1c0,0,0,0,0,0c0,0,0,0,0,0c0.1,0,0.1,0,0.2-0.1c0.1,0,0.1-0.1,0.1-0.1
	c0-0.1,0.1-0.1,0.1-0.2C205,331.2,205,331.2,204.9,331.1z"/>
<path class="st9" d="M225.2,313.9"/>
<path class="st9" d="M228.3,315"/>
<path class="st9" d="M226.1,313"/>
<path class="st3" d="M195.6,320.9c0-0.1-0.1-0.1-0.1-0.2c0,0-0.1-0.1-0.2-0.1c-0.1,0-0.1,0-0.2,0c0,0-0.1,0-0.1,0
	c-0.1,0-0.2,0.1-0.2,0.1c0,0-0.1,0.1-0.1,0.1c0,0.1-0.1,0.2-0.1,0.3c0,0.1,0,0.1,0,0.2c0,0,0,0,0,0c0,0.1,0,0.1,0,0.2
	c0,0.1,0,0.1,0.1,0.2c0,0.1,0.1,0.1,0.1,0.1c0,0,0.1,0.1,0.2,0.1c0,0,0.1,0,0.1,0c0.1,0,0.2,0,0.3-0.1c0,0,0.1-0.1,0.1-0.1
	c0.1-0.1,0.1-0.1,0.1-0.2c0-0.1,0-0.2,0-0.3c0-0.1,0-0.1,0-0.2C195.6,321,195.6,320.9,195.6,320.9z"/>
<path class="st4" d="M140.8,319.1"/>
<path class="st2" d="M148,345"/>
<path class="st0" d="M114.3,323.5"/>
</svg>
